<svg width="16" height="16" viewBox="0 0 16 16" fill="none" xmlns="http://www.w3.org/2000/svg">
<path fill-rule="evenodd" clip-rule="evenodd" d="M7.33337 8.3905V1.99998C7.33337 1.63179 7.63185 1.33331 8.00004 1.33331C8.36823 1.33331 8.66671 1.63179 8.66671 1.99998V8.3905L10.862 6.19524C11.1223 5.93489 11.5444 5.93489 11.8048 6.19524C12.0651 6.45559 12.0651 6.8777 11.8048 7.13805L8.47145 10.4714C8.2111 10.7317 7.78899 10.7317 7.52864 10.4714L4.1953 7.13805C3.93495 6.8777 3.93495 6.45559 4.1953 6.19524C4.45565 5.93489 4.87776 5.93489 5.13811 6.19524L7.33337 8.3905ZM13.3334 10.6666C13.3334 10.2985 13.6319 9.99998 14 9.99998C14.3682 9.99998 14.6667 10.2985 14.6667 10.6666V13C14.6667 13.9205 13.9205 14.6666 13 14.6666H3.00004C2.07957 14.6666 1.33337 13.9205 1.33337 13V10.6666C1.33337 10.2985 1.63185 9.99998 2.00004 9.99998C2.36823 9.99998 2.66671 10.2985 2.66671 10.6666V13C2.66671 13.1841 2.81595 13.3333 3.00004 13.3333H13C13.1841 13.3333 13.3334 13.1841 13.3334 13V10.6666Z" fill="#8A94A6"/>
</svg>
