<svg width="20" height="20" viewBox="0 0 20 20" fill="none" xmlns="http://www.w3.org/2000/svg">
<path d="M16.8053 6.20622C16.1197 5.03153 15.1898 4.10153 14.0152 3.41601C12.8404 2.73045 11.5579 2.38776 10.1668 2.38776C8.77587 2.38776 7.49297 2.73055 6.31846 3.41601C5.14378 4.1015 4.21385 5.03153 3.52825 6.20622C2.84276 7.38087 2.5 8.66359 2.5 10.0544C2.5 11.725 2.98741 13.2273 3.96248 14.5616C4.93745 15.896 6.19696 16.8193 7.74091 17.3317C7.92063 17.3651 8.05367 17.3416 8.14017 17.262C8.22671 17.1822 8.26993 17.0822 8.26993 16.9626C8.26993 16.9426 8.26822 16.763 8.2649 16.4235C8.26147 16.084 8.25986 15.7879 8.25986 15.5352L8.03024 15.5749C7.88385 15.6017 7.69916 15.6131 7.47619 15.6099C7.25332 15.6068 7.02196 15.5834 6.78241 15.54C6.54276 15.497 6.31986 15.3971 6.11353 15.2407C5.90731 15.0843 5.76091 14.8796 5.67437 14.6269L5.57455 14.3972C5.50801 14.2442 5.40325 14.0743 5.26014 13.8881C5.11703 13.7017 4.97231 13.5753 4.82591 13.5088L4.75601 13.4588C4.70944 13.4255 4.66622 13.3854 4.62626 13.3389C4.58633 13.2923 4.55643 13.2458 4.53647 13.1991C4.51647 13.1524 4.53304 13.1142 4.58636 13.0841C4.63969 13.0541 4.73605 13.0395 4.87587 13.0395L5.07545 13.0693C5.20857 13.096 5.37322 13.1757 5.56962 13.3089C5.76591 13.442 5.92727 13.615 6.05374 13.8278C6.20689 14.1008 6.3914 14.3087 6.6078 14.4518C6.82402 14.595 7.04203 14.6664 7.26161 14.6664C7.48119 14.6664 7.67084 14.6497 7.83063 14.6166C7.99024 14.5833 8.14 14.5333 8.27982 14.4668C8.33972 14.0207 8.5028 13.678 8.76892 13.4385C8.38962 13.3986 8.0486 13.3386 7.7457 13.2588C7.44297 13.1788 7.13014 13.0491 6.80741 12.8693C6.48451 12.6896 6.21664 12.4666 6.00374 12.2005C5.7908 11.9343 5.61605 11.5848 5.47972 11.1523C5.34332 10.7196 5.2751 10.2206 5.2751 9.65489C5.2751 8.84947 5.53804 8.16408 6.06381 7.59835C5.81752 6.99283 5.84077 6.31401 6.13364 5.56199C6.32664 5.50202 6.61287 5.54702 6.99217 5.69671C7.37154 5.84646 7.6493 5.97475 7.82573 6.08111C8.00217 6.18744 8.14353 6.27755 8.25003 6.35062C8.86909 6.17765 9.50794 6.09115 10.1667 6.09115C10.8256 6.09115 11.4645 6.17765 12.0836 6.35062L12.463 6.11115C12.7224 5.95136 13.0287 5.80492 13.3812 5.67181C13.734 5.53877 14.0037 5.50213 14.1901 5.56209C14.4895 6.31415 14.5162 6.99293 14.2698 7.59846C14.7955 8.16419 15.0586 8.84975 15.0586 9.65499C15.0586 10.2207 14.9901 10.7213 14.8539 11.1573C14.7176 11.5933 14.5413 11.9425 14.3251 12.2055C14.1086 12.4685 13.839 12.6898 13.5163 12.8694C13.1935 13.0491 12.8806 13.1788 12.5778 13.2587C12.275 13.3387 11.934 13.3987 11.5547 13.4387C11.9006 13.738 12.0736 14.2106 12.0736 14.8561V16.9623C12.0736 17.082 12.1152 17.1818 12.1985 17.2617C12.2817 17.3414 12.413 17.3648 12.5928 17.3314C14.1369 16.8191 15.3964 15.8957 16.3714 14.5613C17.3462 13.227 17.8338 11.7247 17.8338 10.0541C17.8334 8.66349 17.4905 7.38087 16.8053 6.20622Z" fill="#8A94A6"/>
</svg>
