<svg width="20" height="20" viewBox="0 0 20 20" fill="none" xmlns="http://www.w3.org/2000/svg">
<path fill-rule="evenodd" clip-rule="evenodd" d="M10 2.5C12.0369 2.5 12.2923 2.50863 13.0922 2.54513C13.8905 2.58154 14.4357 2.70834 14.9128 2.89376C15.406 3.08539 15.8242 3.34184 16.2412 3.75879C16.6582 4.17577 16.9146 4.59402 17.1063 5.08722C17.2917 5.56427 17.4185 6.10947 17.4549 6.90776C17.4914 7.70771 17.5 7.96312 17.5 10C17.5 12.0369 17.4914 12.2923 17.4549 13.0922C17.4185 13.8905 17.2917 14.4357 17.1063 14.9128C16.9146 15.406 16.6582 15.8242 16.2412 16.2412C15.8242 16.6582 15.406 16.9146 14.9128 17.1063C14.4357 17.2917 13.8905 17.4185 13.0922 17.4549C12.2923 17.4914 12.0369 17.5 10 17.5C7.96312 17.5 7.70771 17.4914 6.90776 17.4549C6.10947 17.4185 5.56427 17.2917 5.08722 17.1063C4.59402 16.9146 4.17577 16.6582 3.75879 16.2412C3.34184 15.8242 3.08539 15.406 2.89376 14.9128C2.70834 14.4357 2.58154 13.8905 2.54513 13.0922C2.50863 12.2923 2.5 12.0369 2.5 10C2.5 7.96312 2.50863 7.70771 2.54513 6.90776C2.58154 6.10947 2.70834 5.56427 2.89376 5.08722C3.08539 4.59402 3.34184 4.17577 3.75879 3.75879C4.17577 3.34184 4.59402 3.08539 5.08722 2.89376C5.56427 2.70834 6.10947 2.58154 6.90776 2.54513C7.70771 2.50863 7.96312 2.5 10 2.5ZM10 3.85135C7.99742 3.85135 7.7602 3.859 6.96936 3.89508C6.23811 3.92843 5.84099 4.05061 5.57671 4.15332C5.22663 4.28937 4.97679 4.4519 4.71436 4.71436C4.4519 4.97679 4.28937 5.22663 4.15332 5.57671C4.05061 5.84099 3.92843 6.23811 3.89508 6.96936C3.859 7.7602 3.85135 7.99742 3.85135 10C3.85135 12.0026 3.859 12.2398 3.89508 13.0306C3.92843 13.7619 4.05061 14.159 4.15332 14.4233C4.28937 14.7734 4.45193 15.0232 4.71436 15.2856C4.97679 15.5481 5.22663 15.7106 5.57671 15.8467C5.84099 15.9494 6.23811 16.0716 6.96936 16.1049C7.76011 16.141 7.99727 16.1487 10 16.1487C12.0027 16.1487 12.2399 16.141 13.0306 16.1049C13.7619 16.0716 14.159 15.9494 14.4233 15.8467C14.7734 15.7106 15.0232 15.5481 15.2856 15.2856C15.5481 15.0232 15.7106 14.7734 15.8467 14.4233C15.9494 14.159 16.0716 13.7619 16.1049 13.0306C16.141 12.2398 16.1487 12.0026 16.1487 10C16.1487 7.99742 16.141 7.7602 16.1049 6.96936C16.0716 6.23811 15.9494 5.84099 15.8467 5.57671C15.7106 5.22663 15.5481 4.97679 15.2856 4.71436C15.0232 4.4519 14.7734 4.28937 14.4233 4.15332C14.159 4.05061 13.7619 3.92843 13.0306 3.89508C12.2398 3.859 12.0026 3.85135 10 3.85135ZM10 6.14865C12.1271 6.14865 13.8513 7.87295 13.8513 10C13.8513 12.1271 12.1271 13.8513 10 13.8513C7.87295 13.8513 6.14865 12.1271 6.14865 10C6.14865 7.87295 7.87295 6.14865 10 6.14865ZM10 12.5C11.3807 12.5 12.5 11.3807 12.5 10C12.5 8.61928 11.3807 7.5 10 7.5C8.61928 7.5 7.5 8.61928 7.5 10C7.5 11.3807 8.61928 12.5 10 12.5ZM14.9035 5.99649C14.9035 6.49355 14.5006 6.89648 14.0035 6.89648C13.5065 6.89648 13.1035 6.49355 13.1035 5.99649C13.1035 5.49943 13.5065 5.09647 14.0035 5.09647C14.5006 5.09647 14.9035 5.49943 14.9035 5.99649Z" fill="#FF867E"/>
</svg>
