<svg width="16" height="16" viewBox="0 0 16 16" fill="none" xmlns="http://www.w3.org/2000/svg">
<path fill-rule="evenodd" clip-rule="evenodd" d="M7.33331 7.33331V3.99998C7.33331 3.63179 7.63179 3.33331 7.99998 3.33331C8.36817 3.33331 8.66665 3.63179 8.66665 3.99998V7.33331H12C12.3682 7.33331 12.6666 7.63179 12.6666 7.99998C12.6666 8.36817 12.3682 8.66665 12 8.66665H8.66665V12C8.66665 12.3682 8.36817 12.6666 7.99998 12.6666C7.63179 12.6666 7.33331 12.3682 7.33331 12V8.66665H3.99998C3.63179 8.66665 3.33331 8.36817 3.33331 7.99998C3.33331 7.63179 3.63179 7.33331 3.99998 7.33331H7.33331Z" fill="white"/>
</svg>
